<svg width="33" height="32" viewBox="0 0 33 32" fill="none" xmlns="http://www.w3.org/2000/svg">
<path d="M7.84091 11.8717H13.7088V12.3358H8.3788V15.8291H13.3909V16.2933H8.3788V20.1286H13.7699V20.5927H7.84091V11.8717ZM14.2344 11.8717H14.8579L17.6206 15.707L20.4445 11.8717L24.2855 7L17.9752 16.1101L21.2269 20.5927H20.579L17.6206 16.5131L14.6501 20.5927H14.0144L17.2906 16.1101L14.2344 11.8717ZM21.4592 12.3358V11.8717H28.1461V12.3358H25.0655V20.5927H24.5276V12.3358H21.4592Z" fill="#EEF0F2"/>
<path d="M0.5 11.8717H1.17236L10.4438 25.6788L6.61233 20.5927L1.06233 12.5313L1.03789 20.5927H0.5V11.8717Z" fill="#EEF0F2"/>
<path d="M28.0919 19.9885C28.2031 19.9885 28.2842 19.9038 28.2842 19.7943C28.2842 19.6848 28.2031 19.6 28.0919 19.6C27.982 19.6 27.8996 19.6848 27.8996 19.7943C27.8996 19.9038 27.982 19.9885 28.0919 19.9885ZM28.6204 19.4775C28.6204 19.8008 28.8546 20.012 29.1961 20.012C29.5598 20.012 29.7796 19.7943 29.7796 19.4162V18.0852H29.4865V19.4149C29.4865 19.6248 29.3805 19.7369 29.1935 19.7369C29.026 19.7369 28.9122 19.6326 28.9083 19.4775H28.6204ZM30.1629 19.4606C30.1838 19.7969 30.4651 20.012 30.8837 20.012C31.3311 20.012 31.6111 19.7865 31.6111 19.4267C31.6111 19.1438 31.4515 18.9873 31.0643 18.8974L30.8562 18.8465C30.6103 18.7892 30.5109 18.7122 30.5109 18.578C30.5109 18.4085 30.6652 18.2977 30.8968 18.2977C31.1166 18.2977 31.2684 18.4059 31.2958 18.5793H31.581C31.564 18.2625 31.2841 18.0396 30.9007 18.0396C30.4886 18.0396 30.2139 18.2625 30.2139 18.5975C30.2139 18.8739 30.3696 19.0382 30.711 19.1177L30.9544 19.1764C31.2042 19.235 31.3141 19.3211 31.3141 19.4645C31.3141 19.6313 31.1415 19.7526 30.906 19.7526C30.6535 19.7526 30.4782 19.6392 30.4533 19.4606H30.1629Z" fill="#EEF0F2"/>
</svg>
